<svg width="85" height="40" viewBox="0 0 85 40" fill="none" xmlns="http://www.w3.org/2000/svg">
<g clip-path="url(#clip0_101_16422)">
<path fill-rule="evenodd" clip-rule="evenodd" d="M13.7261 24.3191C13.7006 24.481 13.6385 24.6351 13.5445 24.7698C13.4504 24.9045 13.3269 25.0163 13.1831 25.097C12.8935 25.2825 12.64 25.3752 12.3836 25.468C11.8376 25.655 11.2629 25.8419 10.655 26.0588C10.014 26.2757 9.43931 26.4927 8.92647 26.6497C8.28692 26.8666 7.67905 27.0536 7.10135 27.2705C6.66672 27.455 6.25846 27.6954 5.88712 27.9856C5.54177 28.2959 5.24037 28.6511 4.99116 29.0417C4.73474 29.4755 4.57334 30.0349 4.57334 30.6871C4.57334 31.993 4.89312 32.9863 5.53417 33.6071C6.17371 34.2608 7.35928 34.5705 9.11652 34.5705C10.9085 34.5705 12.1242 34.2294 12.7667 33.5458C13.4048 32.8622 13.7246 31.9003 13.7246 30.6587V24.3191H13.7261ZM9.11803 10.5569C12.2554 10.5569 14.5587 11.1478 16.0293 12.3595C17.5015 13.5412 18.2376 15.061 18.2376 16.8621V32.21C18.2376 32.8308 18.1109 33.5144 17.8876 34.2593C17.6614 35.0073 17.2149 35.6894 16.5105 36.3087C15.8393 36.9325 14.9116 37.4605 13.7276 37.8644C12.5435 38.2683 11.008 38.4852 9.11954 38.4852C7.23409 38.4852 5.69556 38.2683 4.51301 37.8644C3.33046 37.4605 2.40131 36.9325 1.73009 36.3087C1.10567 35.7507 0.632651 35.046 0.354464 34.2593C0.12821 33.5159 0 32.8322 0 32.2115V29.7582C0 28.4523 0.351448 27.2406 1.05585 26.183C1.76025 25.097 2.75125 24.352 4.03184 23.8853C4.67139 23.6684 5.40747 23.4515 6.23857 23.1718C7.07119 22.8905 7.83743 22.6108 8.60669 22.364C9.37596 22.1142 10.0472 21.8644 10.6219 21.646C10.9687 21.5083 11.3209 21.3846 11.6777 21.275L12.2539 20.9952C12.4802 20.8711 12.7019 20.6841 12.9266 20.4358C13.1499 20.189 13.3414 19.9092 13.5028 19.5981C13.6733 19.2612 13.7612 18.889 13.7592 18.5121V17.5173C13.7616 17.1527 13.6844 16.7919 13.533 16.4597C13.4063 16.0857 13.1499 15.7447 12.7984 15.435C12.447 15.1239 11.9658 14.8755 11.3911 14.6871C10.8149 14.5031 10.0487 14.4088 9.18289 14.4088C7.39096 14.4088 6.2069 14.7529 5.56735 15.4649C5.02434 16.0872 4.70457 16.8636 4.64122 17.7327C4.64122 17.9197 4.48133 18.0438 4.28826 18.0438L0.38614 18.1067C0.293448 18.1071 0.204349 18.0711 0.138243 18.0067C0.0721367 17.9423 0.0343765 17.8545 0.0331839 17.7626V16.8651C0.0331839 15.993 0.194578 15.1852 0.546026 14.4088C0.898982 13.631 1.4435 12.9803 2.17807 12.4193C2.91415 11.8613 3.87497 11.3961 5.02585 11.085C6.14656 10.711 7.52218 10.5569 9.12105 10.5569H9.11803ZM79.8601 24.3191C79.8346 24.481 79.7725 24.6351 79.6784 24.7698C79.5844 24.9045 79.4609 25.0163 79.317 25.097C79.0305 25.2825 78.774 25.3752 78.5176 25.468C77.9746 25.655 77.3969 25.8419 76.789 26.0588C76.148 26.2757 75.5718 26.4927 75.0605 26.6497C74.4194 26.8666 73.8115 27.0536 73.2353 27.2705C72.8002 27.4549 72.3914 27.6953 72.0196 27.9856C71.6748 28.296 71.3739 28.6512 71.1251 29.0417C70.8687 29.4755 70.7088 30.0349 70.7088 30.6871C70.7088 31.993 71.0256 32.9863 71.6666 33.6071C72.3062 34.2608 73.4918 34.5705 75.2505 34.5705C77.0455 34.5705 78.2597 34.2294 78.9007 33.5458C79.5388 32.8622 79.8585 31.9003 79.8585 30.6587L79.8601 24.3191ZM75.2535 10.5569C78.3909 10.5569 80.6942 11.1478 82.1663 12.3595C83.637 13.5412 84.3731 15.061 84.3731 16.8621V32.21C84.3731 32.8308 84.2464 33.5144 84.0216 34.2593C83.7984 35.0073 83.3504 35.6894 82.646 36.3087C81.9748 36.9325 81.0471 37.4605 79.8631 37.8644C78.6805 38.2683 77.1435 38.4852 75.2565 38.4852C73.3711 38.4852 71.8326 38.2683 70.65 37.8644C69.4675 37.4605 68.5383 36.9325 67.8671 36.3087C67.2437 35.7503 66.7718 35.0457 66.4945 34.2593C66.2682 33.5144 66.14 32.8308 66.14 32.21V29.7567C66.14 28.4508 66.493 27.2391 67.1959 26.1815C67.9003 25.0955 68.8928 24.3505 70.1719 23.8838C70.8114 23.6669 71.5475 23.45 72.3801 23.1703C73.2097 22.889 73.979 22.6093 74.7482 22.3625C75.5175 22.1127 76.1872 21.8629 76.7634 21.6445C77.1102 21.5069 77.4624 21.3831 77.8192 21.2735L78.3954 20.9937C78.6187 20.8696 78.8434 20.6826 79.0667 20.4343C79.2956 20.1818 79.4894 19.9001 79.6428 19.5966C79.8134 19.2597 79.9012 18.8875 79.8993 18.5106V17.5158C79.9016 17.1512 79.8244 16.7904 79.673 16.4582C79.5463 16.0842 79.2914 15.7432 78.9384 15.4335C78.587 15.1224 78.1089 14.8741 77.5312 14.6856C76.955 14.5016 76.1887 14.4073 75.3229 14.4073C73.531 14.4073 72.3484 14.7514 71.7074 15.4634C71.1644 16.0857 70.8446 16.8621 70.7797 17.7312C70.7797 17.9182 70.6214 18.0424 70.4298 18.0424H66.5488C66.4571 18.042 66.3692 18.0061 66.3039 17.9424C66.2385 17.8787 66.2008 17.7922 66.1988 17.7013V16.7993C66.1988 15.9316 66.3587 15.1239 66.7117 14.346C67.0631 13.5711 67.6061 12.9174 68.3407 12.3595C69.0798 11.8 70.0376 11.3333 71.1915 11.0236C72.2775 10.7095 73.6532 10.5569 75.2535 10.5569ZM61.5275 10.6811H64.0887C64.3119 10.6811 64.4718 10.8995 64.4084 11.1149L63.5441 14.346C63.514 14.5031 63.3526 14.5958 63.2244 14.5958H61.4324C60.4731 14.5958 59.7054 14.72 59.0975 14.9698C58.5198 15.2166 58.0416 15.4963 57.7204 15.8374C57.4006 16.1815 57.2075 16.521 57.1125 16.8636C57.0264 17.1984 56.9833 17.5427 56.9843 17.8883V37.8644C56.9823 37.9561 56.944 38.0433 56.8776 38.1071C56.8113 38.171 56.7223 38.2063 56.6298 38.2055H52.7926C52.7006 38.2055 52.6124 38.1698 52.5467 38.1061C52.481 38.0423 52.4431 37.9556 52.4411 37.8644V16.9863C52.4411 16.6153 52.5045 16.0558 52.6643 15.3408C52.7926 14.6272 53.1772 13.9436 53.7851 13.2286C54.3929 12.5449 55.2889 11.9242 56.5046 11.4275C57.7219 10.9279 59.3856 10.6811 61.5275 10.6811ZM48.6008 31.5263V32.4583C48.6008 32.8622 48.5405 33.4216 48.3791 34.1367C48.2509 34.8188 47.8663 35.5338 47.2584 36.216C46.6505 36.9011 45.7546 37.5219 44.5388 38.0185C43.3231 38.5166 41.6578 38.7665 39.516 38.7665C37.3741 38.7665 35.7089 38.5166 34.4931 38.0185C33.2774 37.5219 32.3814 36.9325 31.7736 36.2174C31.1657 35.5353 30.7811 34.8203 30.6529 34.1082C30.5262 33.3902 30.4311 32.8637 30.4311 32.4598V11.5517C30.4311 11.3647 30.591 11.2076 30.7826 11.2076H34.5897C34.7827 11.2076 34.9426 11.3647 34.9426 11.5517V31.1224C34.9426 31.7746 35.0377 32.2414 35.1342 32.6138C35.2322 32.9878 35.4238 33.3588 35.7119 33.6699C35.9985 34.011 36.448 34.2907 37.0543 34.5076C37.6305 34.726 38.4315 34.8517 39.4225 34.8517C40.4481 34.8517 41.2777 34.726 41.8871 34.5076C42.495 34.2907 42.943 34.011 43.2627 33.6999C43.5795 33.3902 43.8058 33.0491 43.9008 32.6752C43.9973 32.3012 44.127 31.9931 44.127 31.0895V11.5218C44.127 11.3363 44.2854 11.1807 44.477 11.1807H48.2841C48.4741 11.1807 48.634 11.3363 48.634 11.5247V31.5293H48.6038L48.6008 31.5263ZM22.3991 0.710938H26.2077C26.3993 0.710938 26.5592 0.865014 26.5592 1.05051V38.0499C26.558 38.1416 26.5204 38.2291 26.4547 38.2935C26.3889 38.3579 26.3002 38.394 26.2077 38.394H22.3991C22.3067 38.394 22.218 38.3579 22.1522 38.2935C22.0864 38.2291 22.0489 38.1416 22.0477 38.0499V1.05051C22.0778 0.865014 22.2076 0.710938 22.3991 0.710938Z" fill="#072347"/>
</g>
<defs>
<clipPath id="clip0_101_16422">
<rect width="84.4681" height="39.0927" fill="white" transform="translate(0 0.454102)"/>
</clipPath>
</defs>
</svg>
